<mxfile host="app.diagrams.net" agent="Mozilla/5.0 (Windows NT 10.0; Win64; x64) AppleWebKit/537.36 (KHTML, like Gecko) Chrome/136.0.0.0 Safari/537.36 Edg/136.0.0.0" version="27.0.6">
  <diagram name="PÃ¡gina-1" id="DglhQxTYwcVoG4UClbaS">
    <mxGraphModel dx="2018" dy="786" grid="1" gridSize="10" guides="1" tooltips="1" connect="1" arrows="1" fold="1" page="1" pageScale="1" pageWidth="827" pageHeight="1169" math="0" shadow="0">
      <root>
        <mxCell id="0" />
        <mxCell id="1" parent="0" />
        <mxCell id="triasS2bSTIJZc5xoral-1" value="" style="rounded=0;whiteSpace=wrap;html=1;" parent="1" vertex="1">
          <mxGeometry x="40" y="40" width="1430" height="1550" as="geometry" />
        </mxCell>
        <mxCell id="zUorLh323JgTCuncFjUu-15" value="Residencia" style="swimlane;fontStyle=1;align=center;verticalAlign=top;childLayout=stackLayout;horizontal=1;startSize=26;horizontalStack=0;resizeParent=1;resizeParentMax=0;resizeLast=0;collapsible=1;marginBottom=0;whiteSpace=wrap;html=1;" parent="1" vertex="1">
          <mxGeometry x="150" y="90" width="230" height="204" as="geometry" />
        </mxCell>
        <mxCell id="zUorLh323JgTCuncFjUu-16" value="&lt;div&gt;- ResidenciaId: Long&lt;/div&gt;- TipoDoImovel: Enum&lt;div&gt;- NomeDoMorador: String&lt;/div&gt;&lt;div&gt;- Numero: Int&lt;/div&gt;&lt;div&gt;- CodigoDaLocalidade: Long&lt;/div&gt;&lt;div&gt;- Complemento: String&lt;/div&gt;&lt;div&gt;- NumeroDoQuarteirao: Long&lt;/div&gt;&lt;div&gt;- ComplementoDoQuarteirao: String&lt;/div&gt;&lt;div&gt;- SituacaoDoImovel: Enum&lt;/div&gt;&lt;div&gt;&lt;br&gt;&lt;/div&gt;" style="text;strokeColor=none;fillColor=none;align=left;verticalAlign=top;spacingLeft=4;spacingRight=4;overflow=hidden;rotatable=0;points=[[0,0.5],[1,0.5]];portConstraint=eastwest;whiteSpace=wrap;html=1;" parent="zUorLh323JgTCuncFjUu-15" vertex="1">
          <mxGeometry y="26" width="230" height="144" as="geometry" />
        </mxCell>
        <mxCell id="zUorLh323JgTCuncFjUu-17" value="" style="line;strokeWidth=1;fillColor=none;align=left;verticalAlign=middle;spacingTop=-1;spacingLeft=3;spacingRight=3;rotatable=0;labelPosition=right;points=[];portConstraint=eastwest;strokeColor=inherit;" parent="zUorLh323JgTCuncFjUu-15" vertex="1">
          <mxGeometry y="170" width="230" height="8" as="geometry" />
        </mxCell>
        <mxCell id="zUorLh323JgTCuncFjUu-18" value="+ method(type): type" style="text;strokeColor=none;fillColor=none;align=left;verticalAlign=top;spacingLeft=4;spacingRight=4;overflow=hidden;rotatable=0;points=[[0,0.5],[1,0.5]];portConstraint=eastwest;whiteSpace=wrap;html=1;" parent="zUorLh323JgTCuncFjUu-15" vertex="1">
          <mxGeometry y="178" width="230" height="26" as="geometry" />
        </mxCell>
        <mxCell id="zUorLh323JgTCuncFjUu-19" value="Agente" style="swimlane;fontStyle=1;align=center;verticalAlign=top;childLayout=stackLayout;horizontal=1;startSize=26;horizontalStack=0;resizeParent=1;resizeParentMax=0;resizeLast=0;collapsible=1;marginBottom=0;whiteSpace=wrap;html=1;" parent="1" vertex="1">
          <mxGeometry x="460" y="90" width="230" height="174" as="geometry" />
        </mxCell>
        <mxCell id="zUorLh323JgTCuncFjUu-20" value="&lt;div&gt;&lt;div&gt;- AgenteId: Long&lt;/div&gt;- NomeDoAgente: Strig&lt;div&gt;- Turma: Enum&lt;br&gt;&lt;div&gt;- Senha: String&lt;/div&gt;&lt;div&gt;- Matricula: Long&lt;/div&gt;&lt;div&gt;- CPF: String&lt;/div&gt;&lt;/div&gt;&lt;div&gt;- Hierarquia: Enum&lt;/div&gt;&lt;/div&gt;" style="text;strokeColor=none;fillColor=none;align=left;verticalAlign=top;spacingLeft=4;spacingRight=4;overflow=hidden;rotatable=0;points=[[0,0.5],[1,0.5]];portConstraint=eastwest;whiteSpace=wrap;html=1;" parent="zUorLh323JgTCuncFjUu-19" vertex="1">
          <mxGeometry y="26" width="230" height="114" as="geometry" />
        </mxCell>
        <mxCell id="zUorLh323JgTCuncFjUu-21" value="" style="line;strokeWidth=1;fillColor=none;align=left;verticalAlign=middle;spacingTop=-1;spacingLeft=3;spacingRight=3;rotatable=0;labelPosition=right;points=[];portConstraint=eastwest;strokeColor=inherit;" parent="zUorLh323JgTCuncFjUu-19" vertex="1">
          <mxGeometry y="140" width="230" height="8" as="geometry" />
        </mxCell>
        <mxCell id="zUorLh323JgTCuncFjUu-22" value="+ method(type): type" style="text;strokeColor=none;fillColor=none;align=left;verticalAlign=top;spacingLeft=4;spacingRight=4;overflow=hidden;rotatable=0;points=[[0,0.5],[1,0.5]];portConstraint=eastwest;whiteSpace=wrap;html=1;" parent="zUorLh323JgTCuncFjUu-19" vertex="1">
          <mxGeometry y="148" width="230" height="26" as="geometry" />
        </mxCell>
        <mxCell id="zUorLh323JgTCuncFjUu-23" value="Borrifacao" style="swimlane;fontStyle=1;align=center;verticalAlign=top;childLayout=stackLayout;horizontal=1;startSize=26;horizontalStack=0;resizeParent=1;resizeParentMax=0;resizeLast=0;collapsible=1;marginBottom=0;whiteSpace=wrap;html=1;" parent="1" vertex="1">
          <mxGeometry x="530" y="464" width="230" height="174" as="geometry" />
        </mxCell>
        <mxCell id="zUorLh323JgTCuncFjUu-24" value="&lt;div&gt;- BorrifacaoId: Long&lt;/div&gt;&lt;div&gt;-&amp;nbsp;&lt;span style=&quot;background-color: transparent; color: light-dark(rgb(0, 0, 0), rgb(255, 255, 255));&quot;&gt;MatriculaDoAgente: Long&lt;/span&gt;&lt;/div&gt;&lt;div&gt;&lt;span style=&quot;background-color: transparent; color: light-dark(rgb(0, 0, 0), rgb(255, 255, 255));&quot;&gt;- DataDoPreenchimento: Date&lt;/span&gt;&lt;/div&gt;&lt;div&gt;&lt;span style=&quot;background-color: transparent; color: light-dark(rgb(0, 0, 0), rgb(255, 255, 255));&quot;&gt;- Pendencia: Enum&lt;/span&gt;&lt;/div&gt;&lt;div&gt;&lt;span style=&quot;background-color: transparent; color: light-dark(rgb(0, 0, 0), rgb(255, 255, 255));&quot;&gt;- TipoDeInseticida: String&lt;/span&gt;&lt;/div&gt;&lt;div&gt;&lt;span style=&quot;background-color: transparent; color: light-dark(rgb(0, 0, 0), rgb(255, 255, 255));&quot;&gt;- NumeroDeCarga: Int&lt;/span&gt;&lt;/div&gt;&lt;div&gt;&lt;span style=&quot;background-color: transparent; color: light-dark(rgb(0, 0, 0), rgb(255, 255, 255));&quot;&gt;- PesquisaId: Long&lt;/span&gt;&lt;/div&gt;&lt;div&gt;&lt;span style=&quot;background-color: transparent; color: light-dark(rgb(0, 0, 0), rgb(255, 255, 255));&quot;&gt;&lt;br&gt;&lt;/span&gt;&lt;/div&gt;" style="text;strokeColor=none;fillColor=none;align=left;verticalAlign=top;spacingLeft=4;spacingRight=4;overflow=hidden;rotatable=0;points=[[0,0.5],[1,0.5]];portConstraint=eastwest;whiteSpace=wrap;html=1;" parent="zUorLh323JgTCuncFjUu-23" vertex="1">
          <mxGeometry y="26" width="230" height="114" as="geometry" />
        </mxCell>
        <mxCell id="zUorLh323JgTCuncFjUu-25" value="" style="line;strokeWidth=1;fillColor=none;align=left;verticalAlign=middle;spacingTop=-1;spacingLeft=3;spacingRight=3;rotatable=0;labelPosition=right;points=[];portConstraint=eastwest;strokeColor=inherit;" parent="zUorLh323JgTCuncFjUu-23" vertex="1">
          <mxGeometry y="140" width="230" height="8" as="geometry" />
        </mxCell>
        <mxCell id="zUorLh323JgTCuncFjUu-26" value="+ method(type): type" style="text;strokeColor=none;fillColor=none;align=left;verticalAlign=top;spacingLeft=4;spacingRight=4;overflow=hidden;rotatable=0;points=[[0,0.5],[1,0.5]];portConstraint=eastwest;whiteSpace=wrap;html=1;" parent="zUorLh323JgTCuncFjUu-23" vertex="1">
          <mxGeometry y="148" width="230" height="26" as="geometry" />
        </mxCell>
        <mxCell id="zUorLh323JgTCuncFjUu-27" value="Pesquisa" style="swimlane;fontStyle=1;align=center;verticalAlign=top;childLayout=stackLayout;horizontal=1;startSize=26;horizontalStack=0;resizeParent=1;resizeParentMax=0;resizeLast=0;collapsible=1;marginBottom=0;whiteSpace=wrap;html=1;" parent="1" vertex="1">
          <mxGeometry x="150" y="394" width="230" height="314" as="geometry" />
        </mxCell>
        <mxCell id="zUorLh323JgTCuncFjUu-28" value="&lt;div&gt;- PesquisaId: Long&lt;/div&gt;&lt;div&gt;- ResidenciaId: Long&lt;/div&gt;&lt;div&gt;- MatriculaDoAgente: Long&lt;/div&gt;&lt;div&gt;- DataDaVisita: Date&lt;/div&gt;&lt;div&gt;&lt;span style=&quot;background-color: transparent; color: light-dark(rgb(0, 0, 0), rgb(255, 255, 255));&quot;&gt;- Pendencia: Enum&lt;/span&gt;&lt;/div&gt;&lt;div&gt;- NomeDoMorador: String&lt;/div&gt;&lt;div&gt;- NumeroDeHabitantes: Int&lt;/div&gt;&lt;div&gt;- TipoDeParede: Enum&lt;/div&gt;&lt;div&gt;- OutraParede: String&lt;/div&gt;&lt;div&gt;- TipoDeTeto: Enum&lt;/div&gt;&lt;div&gt;- OutroTeto: String&lt;/div&gt;&lt;div&gt;- CapturaIntra: Bool&lt;/div&gt;&lt;div&gt;- CapturaPeri: Bool&lt;/div&gt;&lt;div&gt;- AnexosPositivos: Int&lt;/div&gt;&lt;div&gt;- AnexosNegativos: Int&lt;/div&gt;&lt;div&gt;- NumeroDeGatos: Int&lt;/div&gt;&lt;div&gt;- NumeroDeCachorros: Int&lt;/div&gt;" style="text;strokeColor=none;fillColor=none;align=left;verticalAlign=top;spacingLeft=4;spacingRight=4;overflow=hidden;rotatable=0;points=[[0,0.5],[1,0.5]];portConstraint=eastwest;whiteSpace=wrap;html=1;" parent="zUorLh323JgTCuncFjUu-27" vertex="1">
          <mxGeometry y="26" width="230" height="254" as="geometry" />
        </mxCell>
        <mxCell id="zUorLh323JgTCuncFjUu-29" value="" style="line;strokeWidth=1;fillColor=none;align=left;verticalAlign=middle;spacingTop=-1;spacingLeft=3;spacingRight=3;rotatable=0;labelPosition=right;points=[];portConstraint=eastwest;strokeColor=inherit;" parent="zUorLh323JgTCuncFjUu-27" vertex="1">
          <mxGeometry y="280" width="230" height="8" as="geometry" />
        </mxCell>
        <mxCell id="zUorLh323JgTCuncFjUu-30" value="+ method(type): type" style="text;strokeColor=none;fillColor=none;align=left;verticalAlign=top;spacingLeft=4;spacingRight=4;overflow=hidden;rotatable=0;points=[[0,0.5],[1,0.5]];portConstraint=eastwest;whiteSpace=wrap;html=1;" parent="zUorLh323JgTCuncFjUu-27" vertex="1">
          <mxGeometry y="288" width="230" height="26" as="geometry" />
        </mxCell>
        <mxCell id="zUorLh323JgTCuncFjUu-31" value="RelatorioSemanal" style="swimlane;fontStyle=1;align=center;verticalAlign=top;childLayout=stackLayout;horizontal=1;startSize=26;horizontalStack=0;resizeParent=1;resizeParentMax=0;resizeLast=0;collapsible=1;marginBottom=0;whiteSpace=wrap;html=1;" parent="1" vertex="1">
          <mxGeometry x="150" y="826" width="230" height="174" as="geometry" />
        </mxCell>
        <mxCell id="zUorLh323JgTCuncFjUu-32" value="&lt;div&gt;- RelatorioSemanalId: Long&lt;/div&gt;&lt;div&gt;- Microrregional: String&lt;/div&gt;&lt;div&gt;- Municipio: String&lt;/div&gt;&lt;div&gt;- FaseDeTrabalho: String&lt;/div&gt;&lt;div&gt;- SemanaDoAno: Int&lt;/div&gt;&lt;div&gt;- Turma: String&lt;/div&gt;&lt;div&gt;- GuardaChefe: String&lt;/div&gt;" style="text;strokeColor=none;fillColor=none;align=left;verticalAlign=top;spacingLeft=4;spacingRight=4;overflow=hidden;rotatable=0;points=[[0,0.5],[1,0.5]];portConstraint=eastwest;whiteSpace=wrap;html=1;" parent="zUorLh323JgTCuncFjUu-31" vertex="1">
          <mxGeometry y="26" width="230" height="114" as="geometry" />
        </mxCell>
        <mxCell id="zUorLh323JgTCuncFjUu-33" value="" style="line;strokeWidth=1;fillColor=none;align=left;verticalAlign=middle;spacingTop=-1;spacingLeft=3;spacingRight=3;rotatable=0;labelPosition=right;points=[];portConstraint=eastwest;strokeColor=inherit;" parent="zUorLh323JgTCuncFjUu-31" vertex="1">
          <mxGeometry y="140" width="230" height="8" as="geometry" />
        </mxCell>
        <mxCell id="zUorLh323JgTCuncFjUu-34" value="+ method(type): type" style="text;strokeColor=none;fillColor=none;align=left;verticalAlign=top;spacingLeft=4;spacingRight=4;overflow=hidden;rotatable=0;points=[[0,0.5],[1,0.5]];portConstraint=eastwest;whiteSpace=wrap;html=1;" parent="zUorLh323JgTCuncFjUu-31" vertex="1">
          <mxGeometry y="148" width="230" height="26" as="geometry" />
        </mxCell>
        <mxCell id="zUorLh323JgTCuncFjUu-35" value="DadosRelatorio" style="swimlane;fontStyle=1;align=center;verticalAlign=top;childLayout=stackLayout;horizontal=1;startSize=26;horizontalStack=0;resizeParent=1;resizeParentMax=0;resizeLast=0;collapsible=1;marginBottom=0;whiteSpace=wrap;html=1;" parent="1" vertex="1">
          <mxGeometry x="150" y="1100" width="230" height="334" as="geometry" />
        </mxCell>
        <mxCell id="zUorLh323JgTCuncFjUu-36" value="&lt;div&gt;- DadosRelatorioId: Long&lt;/div&gt;&lt;div&gt;- RelatorioSemanalId: Long&lt;/div&gt;&lt;div&gt;- Data: Date&lt;/div&gt;&lt;div&gt;- CodigoLocalidade: Enum&lt;/div&gt;&lt;div&gt;- Localidade: String&lt;/div&gt;&lt;div&gt;- NumeroDeHabitantes: Long&lt;/div&gt;&lt;div&gt;- LocalidadePositivo: Bool&lt;/div&gt;&lt;div&gt;- LocalidadeConcluida: Bool&lt;/div&gt;&lt;div&gt;- NumeroDeResidencias: Long&lt;/div&gt;&lt;div&gt;- NumeroDeComercios: Long&lt;/div&gt;&lt;div&gt;- NumeroDeOutros: Long&lt;/div&gt;&lt;div&gt;- ImoveisTrabalhados: Contagem&lt;/div&gt;&lt;div&gt;- ImoveisPendentes: Contagem&lt;/div&gt;&lt;div&gt;- AnexosTrabalhados: Contagem&lt;/div&gt;&lt;div&gt;- UnidadesDomiciliares: Contagem&lt;/div&gt;&lt;div&gt;- TriatomineosCapturados: AreaDeCaptura&lt;/div&gt;&lt;div&gt;- AgentesTrabalhando: Long&lt;/div&gt;" style="text;strokeColor=none;fillColor=none;align=left;verticalAlign=top;spacingLeft=4;spacingRight=4;overflow=hidden;rotatable=0;points=[[0,0.5],[1,0.5]];portConstraint=eastwest;whiteSpace=wrap;html=1;" parent="zUorLh323JgTCuncFjUu-35" vertex="1">
          <mxGeometry y="26" width="230" height="274" as="geometry" />
        </mxCell>
        <mxCell id="zUorLh323JgTCuncFjUu-37" value="" style="line;strokeWidth=1;fillColor=none;align=left;verticalAlign=middle;spacingTop=-1;spacingLeft=3;spacingRight=3;rotatable=0;labelPosition=right;points=[];portConstraint=eastwest;strokeColor=inherit;" parent="zUorLh323JgTCuncFjUu-35" vertex="1">
          <mxGeometry y="300" width="230" height="8" as="geometry" />
        </mxCell>
        <mxCell id="zUorLh323JgTCuncFjUu-38" value="+ method(type): type" style="text;strokeColor=none;fillColor=none;align=left;verticalAlign=top;spacingLeft=4;spacingRight=4;overflow=hidden;rotatable=0;points=[[0,0.5],[1,0.5]];portConstraint=eastwest;whiteSpace=wrap;html=1;" parent="zUorLh323JgTCuncFjUu-35" vertex="1">
          <mxGeometry y="308" width="230" height="26" as="geometry" />
        </mxCell>
        <mxCell id="zUorLh323JgTCuncFjUu-39" value="PIT" style="swimlane;fontStyle=1;align=center;verticalAlign=top;childLayout=stackLayout;horizontal=1;startSize=26;horizontalStack=0;resizeParent=1;resizeParentMax=0;resizeLast=0;collapsible=1;marginBottom=0;whiteSpace=wrap;html=1;" parent="1" vertex="1">
          <mxGeometry x="530" y="670" width="230" height="274" as="geometry" />
        </mxCell>
        <mxCell id="zUorLh323JgTCuncFjUu-40" value="&lt;div&gt;- PitId: Long&lt;/div&gt;&lt;div&gt;- NumeracaoDoPit: Long&lt;/div&gt;&lt;div&gt;- Cres: String&lt;/div&gt;&lt;div&gt;- Municipio: String&lt;/div&gt;&lt;div&gt;-&amp;nbsp;&lt;span style=&quot;background-color: transparent; color: light-dark(rgb(0, 0, 0), rgb(255, 255, 255));&quot;&gt;CodigoDaLocalidade: Long&lt;/span&gt;&lt;/div&gt;&lt;div&gt;- NumeroDaCasa: Int&lt;/div&gt;&lt;div&gt;- OndeEncontrou: Enum&lt;/div&gt;&lt;div&gt;- LocalOndeEntrou: String&lt;/div&gt;&lt;div&gt;- NomeDoMorador: String&lt;/div&gt;&lt;div&gt;- NomeDoCapturador: String&lt;/div&gt;&lt;div&gt;- TipoDeInseto: Enum&lt;/div&gt;&lt;div&gt;- NomeDoRecebedor&lt;/div&gt;&lt;div&gt;- DataDoRegistro: Date&lt;/div&gt;&lt;div&gt;- PesquisaId: Long&lt;/div&gt;" style="text;strokeColor=none;fillColor=none;align=left;verticalAlign=top;spacingLeft=4;spacingRight=4;overflow=hidden;rotatable=0;points=[[0,0.5],[1,0.5]];portConstraint=eastwest;whiteSpace=wrap;html=1;" parent="zUorLh323JgTCuncFjUu-39" vertex="1">
          <mxGeometry y="26" width="230" height="214" as="geometry" />
        </mxCell>
        <mxCell id="zUorLh323JgTCuncFjUu-41" value="" style="line;strokeWidth=1;fillColor=none;align=left;verticalAlign=middle;spacingTop=-1;spacingLeft=3;spacingRight=3;rotatable=0;labelPosition=right;points=[];portConstraint=eastwest;strokeColor=inherit;" parent="zUorLh323JgTCuncFjUu-39" vertex="1">
          <mxGeometry y="240" width="230" height="8" as="geometry" />
        </mxCell>
        <mxCell id="zUorLh323JgTCuncFjUu-42" value="+ method(type): type" style="text;strokeColor=none;fillColor=none;align=left;verticalAlign=top;spacingLeft=4;spacingRight=4;overflow=hidden;rotatable=0;points=[[0,0.5],[1,0.5]];portConstraint=eastwest;whiteSpace=wrap;html=1;" parent="zUorLh323JgTCuncFjUu-39" vertex="1">
          <mxGeometry y="248" width="230" height="26" as="geometry" />
        </mxCell>
        <mxCell id="zUorLh323JgTCuncFjUu-43" value="Contagem" style="swimlane;fontStyle=1;align=center;verticalAlign=top;childLayout=stackLayout;horizontal=1;startSize=26;horizontalStack=0;resizeParent=1;resizeParentMax=0;resizeLast=0;collapsible=1;marginBottom=0;whiteSpace=wrap;html=1;" parent="1" vertex="1">
          <mxGeometry x="530" y="1190" width="230" height="114" as="geometry" />
        </mxCell>
        <mxCell id="zUorLh323JgTCuncFjUu-44" value="- Positivas: Int&lt;div&gt;- Negativas: Int&lt;/div&gt;&lt;div&gt;- Total: Int&lt;/div&gt;" style="text;strokeColor=none;fillColor=none;align=left;verticalAlign=top;spacingLeft=4;spacingRight=4;overflow=hidden;rotatable=0;points=[[0,0.5],[1,0.5]];portConstraint=eastwest;whiteSpace=wrap;html=1;" parent="zUorLh323JgTCuncFjUu-43" vertex="1">
          <mxGeometry y="26" width="230" height="54" as="geometry" />
        </mxCell>
        <mxCell id="zUorLh323JgTCuncFjUu-45" value="" style="line;strokeWidth=1;fillColor=none;align=left;verticalAlign=middle;spacingTop=-1;spacingLeft=3;spacingRight=3;rotatable=0;labelPosition=right;points=[];portConstraint=eastwest;strokeColor=inherit;" parent="zUorLh323JgTCuncFjUu-43" vertex="1">
          <mxGeometry y="80" width="230" height="8" as="geometry" />
        </mxCell>
        <mxCell id="zUorLh323JgTCuncFjUu-46" value="+ method(type): type" style="text;strokeColor=none;fillColor=none;align=left;verticalAlign=top;spacingLeft=4;spacingRight=4;overflow=hidden;rotatable=0;points=[[0,0.5],[1,0.5]];portConstraint=eastwest;whiteSpace=wrap;html=1;" parent="zUorLh323JgTCuncFjUu-43" vertex="1">
          <mxGeometry y="88" width="230" height="26" as="geometry" />
        </mxCell>
        <mxCell id="zUorLh323JgTCuncFjUu-47" value="AreaDeCaptura" style="swimlane;fontStyle=1;align=center;verticalAlign=top;childLayout=stackLayout;horizontal=1;startSize=26;horizontalStack=0;resizeParent=1;resizeParentMax=0;resizeLast=0;collapsible=1;marginBottom=0;whiteSpace=wrap;html=1;" parent="1" vertex="1">
          <mxGeometry x="530" y="1320" width="230" height="114" as="geometry" />
        </mxCell>
        <mxCell id="zUorLh323JgTCuncFjUu-48" value="- Intra: Int&lt;div&gt;- Peri: Int&lt;/div&gt;&lt;div&gt;- Total: Int&lt;/div&gt;" style="text;strokeColor=none;fillColor=none;align=left;verticalAlign=top;spacingLeft=4;spacingRight=4;overflow=hidden;rotatable=0;points=[[0,0.5],[1,0.5]];portConstraint=eastwest;whiteSpace=wrap;html=1;" parent="zUorLh323JgTCuncFjUu-47" vertex="1">
          <mxGeometry y="26" width="230" height="54" as="geometry" />
        </mxCell>
        <mxCell id="zUorLh323JgTCuncFjUu-49" value="" style="line;strokeWidth=1;fillColor=none;align=left;verticalAlign=middle;spacingTop=-1;spacingLeft=3;spacingRight=3;rotatable=0;labelPosition=right;points=[];portConstraint=eastwest;strokeColor=inherit;" parent="zUorLh323JgTCuncFjUu-47" vertex="1">
          <mxGeometry y="80" width="230" height="8" as="geometry" />
        </mxCell>
        <mxCell id="zUorLh323JgTCuncFjUu-50" value="+ method(type): type" style="text;strokeColor=none;fillColor=none;align=left;verticalAlign=top;spacingLeft=4;spacingRight=4;overflow=hidden;rotatable=0;points=[[0,0.5],[1,0.5]];portConstraint=eastwest;whiteSpace=wrap;html=1;" parent="zUorLh323JgTCuncFjUu-47" vertex="1">
          <mxGeometry y="88" width="230" height="26" as="geometry" />
        </mxCell>
        <mxCell id="zUorLh323JgTCuncFjUu-51" value="" style="endArrow=diamondThin;html=1;rounded=0;exitX=0.5;exitY=0;exitDx=0;exitDy=0;endFill=1;endSize=20;" parent="1" source="zUorLh323JgTCuncFjUu-27" target="zUorLh323JgTCuncFjUu-15" edge="1">
          <mxGeometry width="50" height="50" relative="1" as="geometry">
            <mxPoint x="389" y="370" as="sourcePoint" />
            <mxPoint x="439" y="320" as="targetPoint" />
          </mxGeometry>
        </mxCell>
        <mxCell id="zUorLh323JgTCuncFjUu-52" value="1" style="edgeLabel;html=1;align=center;verticalAlign=middle;resizable=0;points=[];" parent="zUorLh323JgTCuncFjUu-51" vertex="1" connectable="0">
          <mxGeometry x="0.79" y="2" relative="1" as="geometry">
            <mxPoint x="-13" as="offset" />
          </mxGeometry>
        </mxCell>
        <mxCell id="zUorLh323JgTCuncFjUu-53" value="1..*" style="edgeLabel;html=1;align=center;verticalAlign=middle;resizable=0;points=[];" parent="zUorLh323JgTCuncFjUu-51" vertex="1" connectable="0">
          <mxGeometry x="-0.7267" y="-1" relative="1" as="geometry">
            <mxPoint x="-16" as="offset" />
          </mxGeometry>
        </mxCell>
        <mxCell id="zUorLh323JgTCuncFjUu-54" value="" style="endArrow=diamondThin;html=1;rounded=0;endFill=1;endSize=20;entryX=1;entryY=0.5;entryDx=0;entryDy=0;exitX=0;exitY=0.5;exitDx=0;exitDy=0;" parent="1" source="zUorLh323JgTCuncFjUu-24" target="zUorLh323JgTCuncFjUu-28" edge="1">
          <mxGeometry width="50" height="50" relative="1" as="geometry">
            <mxPoint x="480" y="543" as="sourcePoint" />
            <mxPoint x="470" y="543" as="targetPoint" />
          </mxGeometry>
        </mxCell>
        <mxCell id="zUorLh323JgTCuncFjUu-55" value="1" style="edgeLabel;html=1;align=center;verticalAlign=middle;resizable=0;points=[];" parent="zUorLh323JgTCuncFjUu-54" vertex="1" connectable="0">
          <mxGeometry x="0.79" y="2" relative="1" as="geometry">
            <mxPoint x="-6" y="16" as="offset" />
          </mxGeometry>
        </mxCell>
        <mxCell id="zUorLh323JgTCuncFjUu-56" value="0..1" style="edgeLabel;html=1;align=center;verticalAlign=middle;resizable=0;points=[];" parent="zUorLh323JgTCuncFjUu-54" vertex="1" connectable="0">
          <mxGeometry x="-0.7267" y="-1" relative="1" as="geometry">
            <mxPoint y="9" as="offset" />
          </mxGeometry>
        </mxCell>
        <mxCell id="zUorLh323JgTCuncFjUu-58" value="" style="endArrow=diamondThin;html=1;rounded=0;exitX=0;exitY=0.5;exitDx=0;exitDy=0;endFill=1;endSize=20;entryX=0.999;entryY=0.863;entryDx=0;entryDy=0;entryPerimeter=0;" parent="1" source="zUorLh323JgTCuncFjUu-40" target="zUorLh323JgTCuncFjUu-28" edge="1">
          <mxGeometry width="50" height="50" relative="1" as="geometry">
            <mxPoint x="620" y="630" as="sourcePoint" />
            <mxPoint x="470" y="630" as="targetPoint" />
            <Array as="points">
              <mxPoint x="450" y="803" />
              <mxPoint x="450" y="640" />
            </Array>
          </mxGeometry>
        </mxCell>
        <mxCell id="zUorLh323JgTCuncFjUu-59" value="1" style="edgeLabel;html=1;align=center;verticalAlign=middle;resizable=0;points=[];" parent="zUorLh323JgTCuncFjUu-58" vertex="1" connectable="0">
          <mxGeometry x="0.79" y="2" relative="1" as="geometry">
            <mxPoint x="-6" y="16" as="offset" />
          </mxGeometry>
        </mxCell>
        <mxCell id="zUorLh323JgTCuncFjUu-60" value="0..1" style="edgeLabel;html=1;align=center;verticalAlign=middle;resizable=0;points=[];" parent="zUorLh323JgTCuncFjUu-58" vertex="1" connectable="0">
          <mxGeometry x="-0.7267" y="-1" relative="1" as="geometry">
            <mxPoint y="9" as="offset" />
          </mxGeometry>
        </mxCell>
        <mxCell id="zUorLh323JgTCuncFjUu-64" value="" style="endArrow=diamondThin;html=1;rounded=0;endSize=20;endFill=1;" parent="1" source="zUorLh323JgTCuncFjUu-35" target="zUorLh323JgTCuncFjUu-34" edge="1">
          <mxGeometry width="50" height="50" relative="1" as="geometry">
            <mxPoint x="200" y="1060" as="sourcePoint" />
            <mxPoint x="250" y="1010" as="targetPoint" />
          </mxGeometry>
        </mxCell>
        <mxCell id="zUorLh323JgTCuncFjUu-65" value="1" style="edgeLabel;html=1;align=center;verticalAlign=middle;resizable=0;points=[];" parent="zUorLh323JgTCuncFjUu-64" vertex="1" connectable="0">
          <mxGeometry x="0.7267" y="-4" relative="1" as="geometry">
            <mxPoint x="-19" as="offset" />
          </mxGeometry>
        </mxCell>
        <mxCell id="zUorLh323JgTCuncFjUu-66" value="1..*" style="edgeLabel;html=1;align=center;verticalAlign=middle;resizable=0;points=[];" parent="zUorLh323JgTCuncFjUu-64" vertex="1" connectable="0">
          <mxGeometry x="-0.7733" y="-1" relative="1" as="geometry">
            <mxPoint x="-16" as="offset" />
          </mxGeometry>
        </mxCell>
        <mxCell id="zUorLh323JgTCuncFjUu-67" value="" style="endArrow=diamondThin;html=1;rounded=0;endSize=20;endFill=1;entryX=1.003;entryY=0.427;entryDx=0;entryDy=0;entryPerimeter=0;exitX=0;exitY=0.5;exitDx=0;exitDy=0;" parent="1" source="zUorLh323JgTCuncFjUu-44" target="zUorLh323JgTCuncFjUu-36" edge="1">
          <mxGeometry width="50" height="50" relative="1" as="geometry">
            <mxPoint x="450" y="1230" as="sourcePoint" />
            <mxPoint x="450" y="1130" as="targetPoint" />
          </mxGeometry>
        </mxCell>
        <mxCell id="zUorLh323JgTCuncFjUu-68" value="1" style="edgeLabel;html=1;align=center;verticalAlign=middle;resizable=0;points=[];" parent="zUorLh323JgTCuncFjUu-67" vertex="1" connectable="0">
          <mxGeometry x="0.7267" y="-4" relative="1" as="geometry">
            <mxPoint x="-1" y="21" as="offset" />
          </mxGeometry>
        </mxCell>
        <mxCell id="zUorLh323JgTCuncFjUu-69" value="1" style="edgeLabel;html=1;align=center;verticalAlign=middle;resizable=0;points=[];" parent="zUorLh323JgTCuncFjUu-67" vertex="1" connectable="0">
          <mxGeometry x="-0.7733" y="-1" relative="1" as="geometry">
            <mxPoint x="7" y="18" as="offset" />
          </mxGeometry>
        </mxCell>
        <mxCell id="zUorLh323JgTCuncFjUu-70" value="" style="endArrow=diamondThin;html=1;rounded=0;endSize=20;endFill=1;exitX=0;exitY=0.5;exitDx=0;exitDy=0;" parent="1" source="zUorLh323JgTCuncFjUu-48" edge="1">
          <mxGeometry width="50" height="50" relative="1" as="geometry">
            <mxPoint x="529" y="1376.71" as="sourcePoint" />
            <mxPoint x="380" y="1372" as="targetPoint" />
          </mxGeometry>
        </mxCell>
        <mxCell id="zUorLh323JgTCuncFjUu-71" value="1" style="edgeLabel;html=1;align=center;verticalAlign=middle;resizable=0;points=[];" parent="zUorLh323JgTCuncFjUu-70" vertex="1" connectable="0">
          <mxGeometry x="0.7267" y="-4" relative="1" as="geometry">
            <mxPoint x="-1" y="21" as="offset" />
          </mxGeometry>
        </mxCell>
        <mxCell id="zUorLh323JgTCuncFjUu-72" value="1" style="edgeLabel;html=1;align=center;verticalAlign=middle;resizable=0;points=[];" parent="zUorLh323JgTCuncFjUu-70" vertex="1" connectable="0">
          <mxGeometry x="-0.7733" y="-1" relative="1" as="geometry">
            <mxPoint x="7" y="18" as="offset" />
          </mxGeometry>
        </mxCell>
      </root>
    </mxGraphModel>
  </diagram>
</mxfile>
